<svg xmlns="http://www.w3.org/2000/svg" viewBox="0 0 256 256" width="256" height="256">
  <defs>
    <radialGradient id="r6_shadow" cx="50%" cy="50%" r="50%">
      <stop offset="0%" stop-color="#2a354d" stop-opacity="0.32" />
      <stop offset="60%" stop-color="#2a354d" stop-opacity="0.12" />
      <stop offset="100%" stop-color="#2a354d" stop-opacity="0" />
    </radialGradient>

    <linearGradient id="r6_f1" x1="0%" y1="0%" x2="100%" y2="100%">
      <stop offset="0%" stop-color="#ffffff" />
      <stop offset="60%" stop-color="#fff6ee" />
      <stop offset="100%" stop-color="#f2dfd0" />
    </linearGradient>

    <linearGradient id="r6_f2" x1="0%" y1="0%" x2="100%" y2="100%">
      <stop offset="0%" stop-color="#edf4fc" />
      <stop offset="100%" stop-color="#cbd8ee" />
    </linearGradient>

    <linearGradient id="r6_f3" x1="0%" y1="0%" x2="100%" y2="100%">
      <stop offset="0%" stop-color="#faece8" />
      <stop offset="100%" stop-color="#e3c2bb" />
    </linearGradient>

    <linearGradient id="r6_wind" x1="0%" y1="0%" x2="100%" y2="100%">
      <stop offset="0%" stop-color="#f59e0b" stop-opacity="0.75" />
      <stop offset="100%" stop-color="#ef4444" stop-opacity="0" />
    </linearGradient>

    <radialGradient id="r6_pipRed" cx="35%" cy="30%" r="70%">
      <stop offset="0%" stop-color="#ff758f" />
      <stop offset="60%" stop-color="#ff477e" />
      <stop offset="100%" stop-color="#c9184a" />
    </radialGradient>

    <radialGradient id="r6_pipIndigo" cx="35%" cy="30%" r="70%">
      <stop offset="0%" stop-color="#4a5f8a" />
      <stop offset="60%" stop-color="#2d3b59" />
      <stop offset="100%" stop-color="#182236" />
    </radialGradient>
  </defs>

  <ellipse cx="128" cy="230" rx="74" ry="17" fill="url(#r6_shadow)" />

  <path d="M 75,70 C 60,115 70,175 110,210" stroke="url(#r6_wind)" stroke-width="2.5" stroke-linecap="round" fill="none" />
  <path d="M 180,75 C 195,115 190,175 155,210" stroke="url(#r6_wind)" stroke-width="2.5" stroke-linecap="round" fill="none" />

  <g transform="translate(128, 116) rotate(232) scale(0.97) translate(-128, -126)">
    <path d="M 128,42 L 204,84 L 204,172 L 128,214 L 52,172 L 52,84 Z"
          fill="#d8e2f0" stroke="#cbd5e1" stroke-width="6" stroke-linejoin="round" />

    <path d="M 52,84 L 128,126 L 128,214 L 52,172 Z"
          fill="url(#r6_f2)" stroke="#c2d0e6" stroke-width="1.5" stroke-linejoin="round" />
    <path d="M 128,126 L 204,84 L 204,172 L 128,214 Z"
          fill="url(#r6_f3)" stroke="#dec2bc" stroke-width="1.5" stroke-linejoin="round" />
    <path d="M 128,42 L 204,84 L 128,126 L 52,84 Z"
          fill="url(#r6_f1)" stroke="#e2e8f0" stroke-width="1.5" stroke-linejoin="round" />

    <path d="M 128,126 L 128,213" stroke="#b8c6dc" stroke-width="2.2" stroke-linecap="round" />
    <path d="M 54,84 L 128,43 L 202,84" stroke="#ffffff" stroke-width="2.5" stroke-linecap="round" opacity="0.85" />

    <ellipse cx="106" cy="70" rx="8.5" ry="4.8" fill="url(#r6_pipIndigo)" />
    <ellipse cx="106" cy="85" rx="8.5" ry="4.8" fill="url(#r6_pipIndigo)" />
    <ellipse cx="106" cy="100" rx="8.5" ry="4.8" fill="url(#r6_pipIndigo)" />
    <ellipse cx="150" cy="70" rx="8.5" ry="4.8" fill="url(#r6_pipIndigo)" />
    <ellipse cx="150" cy="85" rx="8.5" ry="4.8" fill="url(#r6_pipIndigo)" />
    <ellipse cx="150" cy="100" rx="8.5" ry="4.8" fill="url(#r6_pipIndigo)" />

    <g transform="translate(90, 149) rotate(-30)">
      <ellipse cx="0" cy="0" rx="12" ry="16" fill="url(#r6_pipRed)" />
      <ellipse cx="-2.5" cy="-3.5" rx="3.5" ry="4.5" fill="#ffffff" opacity="0.75" />
    </g>

    <g transform="translate(166, 149) rotate(30)">
      <ellipse cx="-16" cy="-16" rx="7" ry="10" fill="url(#r6_pipIndigo)" />
      <ellipse cx="16" cy="-16" rx="7" ry="10" fill="url(#r6_pipIndigo)" />
      <ellipse cx="-16" cy="16" rx="7" ry="10" fill="url(#r6_pipIndigo)" />
      <ellipse cx="16" cy="16" rx="7" ry="10" fill="url(#r6_pipIndigo)" />
    </g>
  </g>
</svg>
